<svg width="36" height="34" viewBox="0 0 36 34" fill="none" xmlns="http://www.w3.org/2000/svg">
<path fill-rule="evenodd" clip-rule="evenodd" d="M31.564 3.60727L35.3348 4.73939L27.2029 12.8713L24.1323 12.1375L19.7786 16.2797C19.9065 16.5905 19.977 16.931 19.977 17.288C19.977 18.7525 18.7898 19.9397 17.3253 19.9397C15.8608 19.9397 14.6736 18.7525 14.6736 17.288C14.6736 15.8234 15.8608 14.6362 17.3253 14.6362C17.8861 14.6362 18.4062 14.8103 18.8346 15.1074L23.1815 10.9716L22.5152 8.18369L30.6472 0.0517578L31.564 3.60727ZM30.4166 7.53625L28.3453 7.04123L27.8503 4.96994L29.8506 2.9697L30.3227 4.80074L32.4988 5.45407L30.4166 7.53625ZM28.6677 9.28522L26.5964 8.7902L26.1014 6.71888L24.1692 8.65107L24.6642 10.7224L26.7355 11.2174L28.6677 9.28522Z" fill="white"/>
<path d="M2.16504 17.288C2.16504 8.9152 8.95255 2.12769 17.3254 2.12769C19.4707 2.12769 21.5101 2.57285 23.3578 3.37513C23.7377 3.54011 24.1795 3.36584 24.3445 2.9859C24.5094 2.60596 24.3352 2.16422 23.9552 1.99924C21.9225 1.11663 19.6801 0.627686 17.3254 0.627686C8.12413 0.627686 0.665039 8.08677 0.665039 17.288C0.665039 26.4893 8.12413 33.9484 17.3254 33.9484C26.5266 33.9484 33.9857 26.4893 33.9857 17.288C33.9857 15.1685 33.5896 13.1397 32.8665 11.2729C32.7169 10.8866 32.2825 10.6948 31.8963 10.8444C31.51 10.994 31.3182 11.4284 31.4678 11.8146C32.1249 13.5114 32.4857 15.3567 32.4857 17.288C32.4857 25.6609 25.6982 32.4484 17.3254 32.4484C8.95255 32.4484 2.16504 25.6609 2.16504 17.288Z" fill="white"/>
<path d="M10.1201 17.2879C10.1201 13.3086 13.346 10.0828 17.3253 10.0828C18.1018 10.0828 18.8483 10.2053 19.5472 10.4317C19.9412 10.5593 20.3641 10.3432 20.4917 9.94917C20.6194 9.5551 20.4033 9.1322 20.0093 9.0046C19.1629 8.73055 18.2606 8.58276 17.3253 8.58276C12.5176 8.58276 8.62012 12.4802 8.62012 17.2879C8.62012 22.0957 12.5176 25.9931 17.3253 25.9931C22.133 25.9931 26.0305 22.0957 26.0305 17.2879C26.0305 16.8525 25.9984 16.4241 25.9365 16.005C25.8759 15.5952 25.4946 15.3121 25.0849 15.3727C24.6751 15.4333 24.392 15.8146 24.4526 16.2243C24.5039 16.571 24.5305 16.9261 24.5305 17.2879C24.5305 21.2672 21.3046 24.4931 17.3253 24.4931C13.346 24.4931 10.1201 21.2672 10.1201 17.2879Z" fill="white"/>
<path d="M17.3253 6.10522C11.1493 6.10522 6.14258 11.1119 6.14258 17.288C6.14258 23.464 11.1493 28.4707 17.3253 28.4707C23.5014 28.4707 28.5081 23.464 28.5081 17.288C28.5081 16.3612 28.3955 15.4617 28.1836 14.602C28.0845 14.1998 28.3301 13.7935 28.7323 13.6943C29.1345 13.5952 29.5409 13.8409 29.64 14.243C29.8806 15.2192 30.0081 16.2392 30.0081 17.288C30.0081 24.2925 24.3298 29.9707 17.3253 29.9707C10.3208 29.9707 4.64258 24.2925 4.64258 17.288C4.64258 10.2835 10.3208 4.60522 17.3253 4.60522C18.588 4.60522 19.8088 4.78996 20.9615 5.13438C21.3584 5.25296 21.584 5.67082 21.4654 6.0677C21.3469 6.46458 20.929 6.69018 20.5321 6.5716C19.5172 6.26837 18.441 6.10522 17.3253 6.10522Z" fill="white"/>
</svg>
